# xmcd
#
# Track frame offsets: 
#        150
#        17337
#        40162
#
# Disc length: 894 seconds
#
# Revision: 0
# Processed by: cddbd v1.5.2PL0 Copyright (c) Steve Scherf et al.
# Submitted via: ExactAudioCopy v0.99pb5
#
DISCID=15037c03
DTITLE=Herbert Grönemeyer - Nach mir (MCD)
DYEAR=1998
DGENRE=Pop
TTITLE0=Nach mir (Radio Edit)
TTITLE1=Bleibt alles anders (live)
TTITLE2=Selbstmitleid (live)
EXTD=
EXTT0=
EXTT1=
EXTT2=
PLAYORDER=
